<svg xmlns="http://www.w3.org/2000/svg" width="34" height="34" viewBox="0, 0, 34, 34"><style>#g:hover g{opacity:.9}</style><g id="g"><g opacity=".6"><path d="M32 17c0 8.284-6.716 15-15 15-8.284 0-15-6.716-15-15C2 8.716 8.716 2 17 2c8.284 0 15 6.716 15 15z"/><path d="M17 2c8.283 0 15 6.716 15 15 0 8.284-6.717 15-15 15-8.286 0-15-6.716-15-15C2 8.716 8.714 2 17 2m0-2C7.626 0 0 7.626 0 17c0 9.374 7.626 17 17 17 9.374 0 17-7.626 17-17 0-9.374-7.626-17-17-17z" fill="#FFF" opacity=".5"/></g><path d="M21.667 23.667l-1.334-13.334-2.666 6.4z" fill="#00B0C8"/><path d="M20.333 10.333l-10.666 8 8-1.6z" fill="#01E6FF"/><path d="M17.667 16.733l-8 1.6H17l4.667 5.334z" fill="#007085"/></g></svg>